<mxfile host="app.diagrams.net" modified="2022-05-25T15:51:10.167Z" agent="5.0 (Windows NT 10.0; Win64; x64) AppleWebKit/537.36 (KHTML, like Gecko) Chrome/101.0.4951.67 Safari/537.36" etag="VT2jli9jGyf5sxRtBmxe" version="18.1.2" type="github">
  <diagram id="C5RBs43oDa-KdzZeNtuy" name="Page-1">
    <mxGraphModel dx="1038" dy="1716" grid="1" gridSize="10" guides="1" tooltips="1" connect="1" arrows="1" fold="1" page="1" pageScale="1" pageWidth="827" pageHeight="1169" math="0" shadow="0">
      <root>
        <mxCell id="WIyWlLk6GJQsqaUBKTNV-0" />
        <mxCell id="WIyWlLk6GJQsqaUBKTNV-1" parent="WIyWlLk6GJQsqaUBKTNV-0" />
        <mxCell id="WIyWlLk6GJQsqaUBKTNV-3" value="Select a random word from a list of words" style="rounded=1;whiteSpace=wrap;html=1;fontSize=12;glass=0;strokeWidth=1;shadow=0;" parent="WIyWlLk6GJQsqaUBKTNV-1" vertex="1">
          <mxGeometry x="145" y="80" width="125" height="60" as="geometry" />
        </mxCell>
        <mxCell id="jT_ZpZNhPVKsYyTXHoG0-0" value="Start" style="ellipse;whiteSpace=wrap;html=1;" vertex="1" parent="WIyWlLk6GJQsqaUBKTNV-1">
          <mxGeometry x="162.5" y="-20" width="90" height="50" as="geometry" />
        </mxCell>
        <mxCell id="jT_ZpZNhPVKsYyTXHoG0-1" value="" style="endArrow=classic;html=1;rounded=0;exitX=0.5;exitY=1;exitDx=0;exitDy=0;entryX=0.5;entryY=0;entryDx=0;entryDy=0;" edge="1" parent="WIyWlLk6GJQsqaUBKTNV-1" source="jT_ZpZNhPVKsYyTXHoG0-0" target="WIyWlLk6GJQsqaUBKTNV-3">
          <mxGeometry width="50" height="50" relative="1" as="geometry">
            <mxPoint x="390" y="110" as="sourcePoint" />
            <mxPoint x="220" y="70" as="targetPoint" />
          </mxGeometry>
        </mxCell>
        <mxCell id="jT_ZpZNhPVKsYyTXHoG0-2" value="" style="endArrow=classic;html=1;rounded=0;exitX=0.437;exitY=1.033;exitDx=0;exitDy=0;exitPerimeter=0;" edge="1" parent="WIyWlLk6GJQsqaUBKTNV-1" source="WIyWlLk6GJQsqaUBKTNV-3">
          <mxGeometry width="50" height="50" relative="1" as="geometry">
            <mxPoint x="390" y="200" as="sourcePoint" />
            <mxPoint x="200" y="200" as="targetPoint" />
            <Array as="points" />
          </mxGeometry>
        </mxCell>
        <mxCell id="jT_ZpZNhPVKsYyTXHoG0-3" value="Display blanks equal to the length of the selected word" style="rounded=1;whiteSpace=wrap;html=1;" vertex="1" parent="WIyWlLk6GJQsqaUBKTNV-1">
          <mxGeometry x="145" y="200" width="120" height="60" as="geometry" />
        </mxCell>
        <mxCell id="jT_ZpZNhPVKsYyTXHoG0-4" value="" style="endArrow=classic;html=1;rounded=0;exitX=0.5;exitY=1;exitDx=0;exitDy=0;" edge="1" parent="WIyWlLk6GJQsqaUBKTNV-1" source="jT_ZpZNhPVKsYyTXHoG0-3">
          <mxGeometry width="50" height="50" relative="1" as="geometry">
            <mxPoint x="390" y="190" as="sourcePoint" />
            <mxPoint x="205" y="320" as="targetPoint" />
          </mxGeometry>
        </mxCell>
        <mxCell id="jT_ZpZNhPVKsYyTXHoG0-8" value="" style="edgeStyle=orthogonalEdgeStyle;rounded=0;orthogonalLoop=1;jettySize=auto;html=1;" edge="1" parent="WIyWlLk6GJQsqaUBKTNV-1" source="jT_ZpZNhPVKsYyTXHoG0-5" target="jT_ZpZNhPVKsYyTXHoG0-6">
          <mxGeometry relative="1" as="geometry" />
        </mxCell>
        <mxCell id="jT_ZpZNhPVKsYyTXHoG0-5" value="User enters a character" style="shape=parallelogram;perimeter=parallelogramPerimeter;whiteSpace=wrap;html=1;fixedSize=1;" vertex="1" parent="WIyWlLk6GJQsqaUBKTNV-1">
          <mxGeometry x="145" y="320" width="120" height="60" as="geometry" />
        </mxCell>
        <mxCell id="jT_ZpZNhPVKsYyTXHoG0-10" value="" style="edgeStyle=orthogonalEdgeStyle;rounded=0;orthogonalLoop=1;jettySize=auto;html=1;" edge="1" parent="WIyWlLk6GJQsqaUBKTNV-1" source="jT_ZpZNhPVKsYyTXHoG0-6" target="jT_ZpZNhPVKsYyTXHoG0-9">
          <mxGeometry relative="1" as="geometry" />
        </mxCell>
        <mxCell id="jT_ZpZNhPVKsYyTXHoG0-20" value="" style="edgeStyle=orthogonalEdgeStyle;rounded=0;orthogonalLoop=1;jettySize=auto;html=1;" edge="1" parent="WIyWlLk6GJQsqaUBKTNV-1" source="jT_ZpZNhPVKsYyTXHoG0-6" target="jT_ZpZNhPVKsYyTXHoG0-19">
          <mxGeometry relative="1" as="geometry" />
        </mxCell>
        <mxCell id="jT_ZpZNhPVKsYyTXHoG0-6" value="check if character is in the word" style="rhombus;whiteSpace=wrap;html=1;" vertex="1" parent="WIyWlLk6GJQsqaUBKTNV-1">
          <mxGeometry x="162.5" y="440" width="85" height="100" as="geometry" />
        </mxCell>
        <mxCell id="jT_ZpZNhPVKsYyTXHoG0-12" value="" style="edgeStyle=orthogonalEdgeStyle;rounded=0;orthogonalLoop=1;jettySize=auto;html=1;" edge="1" parent="WIyWlLk6GJQsqaUBKTNV-1" source="jT_ZpZNhPVKsYyTXHoG0-9" target="jT_ZpZNhPVKsYyTXHoG0-11">
          <mxGeometry relative="1" as="geometry" />
        </mxCell>
        <mxCell id="jT_ZpZNhPVKsYyTXHoG0-9" value="Create a part of the hangman" style="rounded=1;whiteSpace=wrap;html=1;" vertex="1" parent="WIyWlLk6GJQsqaUBKTNV-1">
          <mxGeometry x="310" y="460" width="120" height="60" as="geometry" />
        </mxCell>
        <mxCell id="jT_ZpZNhPVKsYyTXHoG0-14" value="" style="edgeStyle=orthogonalEdgeStyle;rounded=0;orthogonalLoop=1;jettySize=auto;html=1;" edge="1" parent="WIyWlLk6GJQsqaUBKTNV-1" source="jT_ZpZNhPVKsYyTXHoG0-11" target="jT_ZpZNhPVKsYyTXHoG0-13">
          <mxGeometry relative="1" as="geometry" />
        </mxCell>
        <mxCell id="jT_ZpZNhPVKsYyTXHoG0-16" value="" style="edgeStyle=orthogonalEdgeStyle;rounded=0;orthogonalLoop=1;jettySize=auto;html=1;entryX=1;entryY=0.5;entryDx=0;entryDy=0;" edge="1" parent="WIyWlLk6GJQsqaUBKTNV-1" source="jT_ZpZNhPVKsYyTXHoG0-11" target="jT_ZpZNhPVKsYyTXHoG0-5">
          <mxGeometry relative="1" as="geometry">
            <mxPoint x="575" y="350" as="targetPoint" />
            <Array as="points">
              <mxPoint x="575" y="350" />
            </Array>
          </mxGeometry>
        </mxCell>
        <mxCell id="jT_ZpZNhPVKsYyTXHoG0-11" value="If all lives are lost" style="rhombus;whiteSpace=wrap;html=1;rounded=1;" vertex="1" parent="WIyWlLk6GJQsqaUBKTNV-1">
          <mxGeometry x="530" y="445" width="90" height="90" as="geometry" />
        </mxCell>
        <mxCell id="jT_ZpZNhPVKsYyTXHoG0-13" value="game over user lost" style="ellipse;whiteSpace=wrap;html=1;rounded=1;" vertex="1" parent="WIyWlLk6GJQsqaUBKTNV-1">
          <mxGeometry x="685" y="460" width="120" height="60" as="geometry" />
        </mxCell>
        <mxCell id="jT_ZpZNhPVKsYyTXHoG0-17" value="NO" style="text;html=1;align=center;verticalAlign=middle;resizable=0;points=[];autosize=1;strokeColor=none;fillColor=none;" vertex="1" parent="WIyWlLk6GJQsqaUBKTNV-1">
          <mxGeometry x="580" y="410" width="30" height="20" as="geometry" />
        </mxCell>
        <mxCell id="jT_ZpZNhPVKsYyTXHoG0-18" value="Yes" style="text;html=1;align=center;verticalAlign=middle;resizable=0;points=[];autosize=1;strokeColor=none;fillColor=none;" vertex="1" parent="WIyWlLk6GJQsqaUBKTNV-1">
          <mxGeometry x="620" y="470" width="40" height="20" as="geometry" />
        </mxCell>
        <mxCell id="jT_ZpZNhPVKsYyTXHoG0-22" value="" style="edgeStyle=orthogonalEdgeStyle;rounded=0;orthogonalLoop=1;jettySize=auto;html=1;" edge="1" parent="WIyWlLk6GJQsqaUBKTNV-1" source="jT_ZpZNhPVKsYyTXHoG0-19" target="jT_ZpZNhPVKsYyTXHoG0-21">
          <mxGeometry relative="1" as="geometry" />
        </mxCell>
        <mxCell id="jT_ZpZNhPVKsYyTXHoG0-19" value="Replaces the blanks at which the character is present in the word with the character" style="rounded=1;whiteSpace=wrap;html=1;" vertex="1" parent="WIyWlLk6GJQsqaUBKTNV-1">
          <mxGeometry x="147.5" y="630" width="115" height="70" as="geometry" />
        </mxCell>
        <mxCell id="jT_ZpZNhPVKsYyTXHoG0-24" value="" style="edgeStyle=orthogonalEdgeStyle;rounded=0;orthogonalLoop=1;jettySize=auto;html=1;" edge="1" parent="WIyWlLk6GJQsqaUBKTNV-1" source="jT_ZpZNhPVKsYyTXHoG0-21" target="jT_ZpZNhPVKsYyTXHoG0-23">
          <mxGeometry relative="1" as="geometry" />
        </mxCell>
        <mxCell id="jT_ZpZNhPVKsYyTXHoG0-26" value="" style="edgeStyle=orthogonalEdgeStyle;rounded=0;orthogonalLoop=1;jettySize=auto;html=1;" edge="1" parent="WIyWlLk6GJQsqaUBKTNV-1" source="jT_ZpZNhPVKsYyTXHoG0-21" target="jT_ZpZNhPVKsYyTXHoG0-5">
          <mxGeometry relative="1" as="geometry">
            <mxPoint x="40" y="340" as="targetPoint" />
            <Array as="points">
              <mxPoint x="70" y="823" />
              <mxPoint x="70" y="340" />
            </Array>
          </mxGeometry>
        </mxCell>
        <mxCell id="jT_ZpZNhPVKsYyTXHoG0-21" value="If the word is complete/ all blanks are replaced" style="rhombus;whiteSpace=wrap;html=1;rounded=1;" vertex="1" parent="WIyWlLk6GJQsqaUBKTNV-1">
          <mxGeometry x="142.5" y="770" width="125" height="105" as="geometry" />
        </mxCell>
        <mxCell id="jT_ZpZNhPVKsYyTXHoG0-23" value="Game over user won" style="ellipse;whiteSpace=wrap;html=1;rounded=1;" vertex="1" parent="WIyWlLk6GJQsqaUBKTNV-1">
          <mxGeometry x="350" y="792.5" width="120" height="60" as="geometry" />
        </mxCell>
        <mxCell id="jT_ZpZNhPVKsYyTXHoG0-27" value="Yes" style="text;html=1;align=center;verticalAlign=middle;resizable=0;points=[];autosize=1;strokeColor=none;fillColor=none;" vertex="1" parent="WIyWlLk6GJQsqaUBKTNV-1">
          <mxGeometry x="280" y="800" width="40" height="20" as="geometry" />
        </mxCell>
        <mxCell id="jT_ZpZNhPVKsYyTXHoG0-28" value="No" style="text;html=1;align=center;verticalAlign=middle;resizable=0;points=[];autosize=1;strokeColor=none;fillColor=none;" vertex="1" parent="WIyWlLk6GJQsqaUBKTNV-1">
          <mxGeometry x="95" y="790" width="30" height="20" as="geometry" />
        </mxCell>
      </root>
    </mxGraphModel>
  </diagram>
</mxfile>
